<?xml version="1.0" standalone="no"?>
<!DOCTYPE svg PUBLIC "-//W3C//DTD SVG 20010904//EN"
 "http://www.w3.org/TR/2001/REC-SVG-20010904/DTD/svg10.dtd">
<svg version="1.0" xmlns="http://www.w3.org/2000/svg"
 width="1280.000000pt" height="1280.000000pt" viewBox="0 0 1280.000000 1280.000000"
 preserveAspectRatio="xMidYMid meet">
<metadata>
Created by potrace 1.11, written by Peter Selinger 2001-2013
</metadata>
<g transform="translate(0.000000,1280.000000) scale(0.100000,-0.100000)"
fill="#000000" stroke="none">
<path d="M2849 10946 c-2 -2 -38 -7 -79 -10 -81 -7 -111 -11 -212 -27 -102
-16 -181 -33 -268 -56 -30 -8 -63 -16 -72 -18 -51 -11 -269 -90 -373 -134
-364 -157 -675 -369 -960 -656 -99 -99 -244 -269 -301 -350 -11 -16 -36 -52
-56 -80 -109 -156 -241 -405 -315 -595 -20 -51 -90 -260 -99 -295 -4 -16 -9
-34 -11 -40 -23 -71 -80 -382 -90 -502 -5 -48 -8 -1460 -8 -3138 l0 -3050 27
-41 c32 -50 69 -78 123 -93 30 -9 1246 -11 4950 -9 2701 2 4919 6 4930 9 11 4
52 10 90 14 39 4 115 15 170 25 890 164 1654 706 2107 1495 42 73 151 301 186
391 34 86 95 268 107 321 2 10 11 46 20 81 12 52 39 192 60 321 17 103 20 544
20 3236 l0 3050 -22 42 c-25 47 -71 84 -122 102 -26 8 -1280 11 -4916 11
-2685 0 -4884 -2 -4886 -4z"/>
</g>
</svg>
